<svg width="161" height="126" viewBox="0 0 161 126" fill="none" xmlns="http://www.w3.org/2000/svg">
<path fill-rule="evenodd" clip-rule="evenodd" d="M89.5 40C89.5 44.9706 85.4706 49 80.5 49C75.5294 49 71.5 44.9706 71.5 40C71.5 35.0294 75.5294 31 80.5 31C85.4706 31 89.5 35.0294 89.5 40ZM80.5 46C79.9477 46 79.5 45.5523 79.5 45V41H75.5C74.9477 41 74.5 40.5523 74.5 40C74.5 39.4477 74.9477 39 75.5 39H79.5V35C79.5 34.4477 79.9477 34 80.5 34C81.0523 34 81.5 34.4477 81.5 35V39H85.5C86.0523 39 86.5 39.4477 86.5 40C86.5 40.5523 86.0523 41 85.5 41H81.5V45C81.5 45.5523 81.0523 46 80.5 46Z" fill="#828691"/>
<path d="M24.7075 78.8182V74.75H25.4575C25.7151 74.5152 25.9575 74.1837 26.1848 73.7557C26.4159 73.3239 26.6109 72.7481 26.77 72.0284C26.9329 71.3049 27.0409 70.3864 27.0939 69.2727L27.3439 64.3636H34.253V74.75H35.5939V78.7955H34.253V76H26.0484V78.8182H24.7075ZM27.1393 74.75H32.9121V65.6136H28.6166L28.4348 69.2727C28.3893 70.1212 28.3098 70.8902 28.1962 71.5795C28.0825 72.2652 27.9367 72.8731 27.7587 73.4034C27.5806 73.9299 27.3742 74.3788 27.1393 74.75ZM40.6868 76.1818C39.8989 76.1818 39.2076 75.9943 38.6129 75.6193C38.022 75.2443 37.5599 74.7197 37.2266 74.0455C36.897 73.3712 36.7322 72.5833 36.7322 71.6818C36.7322 70.7727 36.897 69.9792 37.2266 69.3011C37.5599 68.6231 38.022 68.0966 38.6129 67.7216C39.2076 67.3466 39.8989 67.1591 40.6868 67.1591C41.4747 67.1591 42.1641 67.3466 42.755 67.7216C43.3497 68.0966 43.8118 68.6231 44.1413 69.3011C44.4747 69.9792 44.6413 70.7727 44.6413 71.6818C44.6413 72.5833 44.4747 73.3712 44.1413 74.0455C43.8118 74.7197 43.3497 75.2443 42.755 75.6193C42.1641 75.9943 41.4747 76.1818 40.6868 76.1818ZM40.6868 74.9773C41.2853 74.9773 41.7777 74.8239 42.1641 74.517C42.5504 74.2102 42.8364 73.8068 43.022 73.3068C43.2076 72.8068 43.3004 72.2652 43.3004 71.6818C43.3004 71.0985 43.2076 70.5549 43.022 70.0511C42.8364 69.5473 42.5504 69.1402 42.1641 68.8295C41.7777 68.5189 41.2853 68.3636 40.6868 68.3636C40.0883 68.3636 39.5959 68.5189 39.2095 68.8295C38.8232 69.1402 38.5372 69.5473 38.3516 70.0511C38.166 70.5549 38.0732 71.0985 38.0732 71.6818C38.0732 72.2652 38.166 72.8068 38.3516 73.3068C38.5372 73.8068 38.8232 74.2102 39.2095 74.517C39.5959 74.8239 40.0883 74.9773 40.6868 74.9773ZM52.7655 64L53.4473 64.8182C53.1822 65.0758 52.8753 65.2557 52.5268 65.358C52.1784 65.4602 51.7844 65.5227 51.345 65.5455C50.9056 65.5682 50.417 65.5909 49.8791 65.6136C49.2731 65.6364 48.7712 65.7841 48.3734 66.0568C47.9757 66.3295 47.6689 66.7235 47.453 67.2386C47.2371 67.7538 47.0988 68.3864 47.0382 69.1364H47.1518C47.4473 68.5909 47.8564 68.1894 48.3791 67.9318C48.9018 67.6742 49.4625 67.5455 50.0609 67.5455C50.7428 67.5455 51.3564 67.7045 51.9018 68.0227C52.4473 68.3409 52.8791 68.8125 53.1973 69.4375C53.5155 70.0625 53.6746 70.8333 53.6746 71.75C53.6746 72.6629 53.5117 73.4508 53.1859 74.1136C52.864 74.7765 52.4113 75.2879 51.828 75.6477C51.2484 76.0038 50.5685 76.1818 49.7882 76.1818C49.0079 76.1818 48.3242 75.9981 47.7371 75.6307C47.15 75.2595 46.6935 74.7102 46.3678 73.983C46.042 73.2519 45.8791 72.3485 45.8791 71.2727V70.3409C45.8791 68.3977 46.2087 66.9242 46.8678 65.9205C47.5306 64.9167 48.5268 64.3977 49.8564 64.3636C50.3261 64.3485 50.7447 64.3447 51.1121 64.3523C51.4795 64.3598 51.7996 64.3428 52.0723 64.3011C52.345 64.2595 52.5761 64.1591 52.7655 64ZM49.7882 74.9773C50.3147 74.9773 50.7674 74.8447 51.1462 74.5795C51.5287 74.3144 51.8223 73.9413 52.0268 73.4602C52.2314 72.9754 52.3337 72.4053 52.3337 71.75C52.3337 71.1136 52.2295 70.572 52.0212 70.125C51.8166 69.678 51.5231 69.3371 51.1405 69.1023C50.7579 68.8674 50.2996 68.75 49.7655 68.75C49.3753 68.75 49.025 68.8163 48.7143 68.9489C48.4037 69.0814 48.1386 69.2765 47.9189 69.5341C47.6992 69.7917 47.5287 70.1061 47.4075 70.4773C47.2901 70.8485 47.2276 71.2727 47.22 71.75C47.22 72.7273 47.4492 73.5095 47.9075 74.0966C48.3659 74.6837 48.9928 74.9773 49.7882 74.9773ZM57.8939 76.2045C57.3409 76.2045 56.839 76.1004 56.3882 75.892C55.9375 75.6799 55.5795 75.375 55.3143 74.9773C55.0492 74.5758 54.9166 74.0909 54.9166 73.5227C54.9166 73.0227 55.0151 72.6174 55.2121 72.3068C55.409 71.9924 55.6723 71.7462 56.0018 71.5682C56.3314 71.3902 56.695 71.2576 57.0928 71.1705C57.4943 71.0795 57.8977 71.0076 58.303 70.9545C58.8333 70.8864 59.2632 70.8352 59.5928 70.8011C59.9261 70.7633 60.1685 70.7008 60.32 70.6136C60.4753 70.5265 60.553 70.375 60.553 70.1591V70.1136C60.553 69.553 60.3996 69.1174 60.0928 68.8068C59.7897 68.4962 59.3295 68.3409 58.7121 68.3409C58.0719 68.3409 57.57 68.4811 57.2064 68.7614C56.8428 69.0417 56.5871 69.3409 56.4393 69.6591L55.1666 69.2045C55.3939 68.6742 55.6969 68.2614 56.0757 67.9659C56.4583 67.6667 56.875 67.4583 57.3257 67.3409C57.7803 67.2197 58.2272 67.1591 58.6666 67.1591C58.9469 67.1591 59.2689 67.1932 59.6325 67.2614C60 67.3258 60.3541 67.4602 60.695 67.6648C61.0397 67.8693 61.3257 68.178 61.553 68.5909C61.7803 69.0038 61.8939 69.5568 61.8939 70.25V76H60.553V74.8182H60.4848C60.3939 75.0076 60.2424 75.2102 60.0303 75.4261C59.8181 75.642 59.5359 75.8258 59.1837 75.9773C58.8314 76.1288 58.4015 76.2045 57.8939 76.2045ZM58.0984 75C58.6287 75 59.0757 74.8958 59.4393 74.6875C59.8068 74.4792 60.0833 74.2102 60.2689 73.8807C60.4583 73.5511 60.553 73.2045 60.553 72.8409V71.6136C60.4962 71.6818 60.3712 71.7443 60.178 71.8011C59.9886 71.8542 59.7689 71.9015 59.5189 71.9432C59.2727 71.9811 59.0322 72.0152 58.7973 72.0455C58.5662 72.072 58.3787 72.0947 58.2348 72.1136C57.8863 72.1591 57.5606 72.233 57.2575 72.3352C56.9583 72.4337 56.7159 72.5833 56.5303 72.7841C56.3484 72.9811 56.2575 73.25 56.2575 73.5909C56.2575 74.0568 56.4299 74.4091 56.7746 74.6477C57.1231 74.8826 57.5643 75 58.0984 75ZM63.9413 76V67.2727H67.5095C68.4489 67.2727 69.1951 67.4848 69.7482 67.9091C70.3012 68.3333 70.5777 68.8939 70.5777 69.5909C70.5777 70.1212 70.4205 70.5322 70.1061 70.8239C69.7917 71.1117 69.3883 71.3068 68.8959 71.4091C69.2179 71.4545 69.5304 71.5682 69.8334 71.75C70.1402 71.9318 70.394 72.1818 70.5947 72.5C70.7955 72.8144 70.8959 73.2008 70.8959 73.6591C70.8959 74.1061 70.7822 74.5057 70.555 74.858C70.3277 75.2102 70.0019 75.4886 69.5777 75.6932C69.1535 75.8977 68.6459 76 68.055 76H63.9413ZM65.2141 74.7727H68.055C68.5171 74.7727 68.8788 74.6629 69.1402 74.4432C69.4016 74.2235 69.5322 73.9242 69.5322 73.5455C69.5322 73.0947 69.4016 72.7405 69.1402 72.483C68.8788 72.2216 68.5171 72.0909 68.055 72.0909H65.2141V74.7727ZM65.2141 70.9318H67.5095C67.8694 70.9318 68.1781 70.8826 68.4357 70.7841C68.6932 70.6818 68.8902 70.5379 69.0266 70.3523C69.1667 70.1629 69.2368 69.9394 69.2368 69.6818C69.2368 69.3144 69.0834 69.0265 68.7766 68.8182C68.4697 68.6061 68.0474 68.5 67.5095 68.5H65.2141V70.9318ZM73.8666 74.0227L78.0712 67.2727H79.6166V76H78.2757V69.25L74.0939 76H72.5257V67.2727H73.8666V74.0227ZM80.4851 68.5227V67.2727H87.576V68.5227H84.7124V76H83.3714V68.5227H80.4851ZM90.2911 70.4318H92.7911C93.8138 70.4318 94.596 70.6913 95.1376 71.2102C95.6793 71.7292 95.9501 72.3864 95.9501 73.1818C95.9501 73.7045 95.8289 74.1799 95.5865 74.608C95.3441 75.0322 94.988 75.3712 94.5183 75.625C94.0486 75.875 93.4729 76 92.7911 76H89.132V67.2727H90.4729V74.75H92.7911C93.3214 74.75 93.757 74.6098 94.0979 74.3295C94.4388 74.0492 94.6092 73.6894 94.6092 73.25C94.6092 72.7879 94.4388 72.411 94.0979 72.1193C93.757 71.8277 93.3214 71.6818 92.7911 71.6818H90.2911V70.4318ZM105.237 78.9773V64.3636H106.578V78.9773H105.237ZM105.237 76.1818C104.646 76.1818 104.108 76.0758 103.623 75.8636C103.138 75.6477 102.722 75.3428 102.373 74.9489C102.025 74.5511 101.756 74.0758 101.566 73.5227C101.377 72.9697 101.282 72.3561 101.282 71.6818C101.282 71 101.377 70.3826 101.566 69.8295C101.756 69.2727 102.025 68.7955 102.373 68.3977C102.722 68 103.138 67.6951 103.623 67.483C104.108 67.267 104.646 67.1591 105.237 67.1591H105.646V76.1818H105.237ZM105.237 74.9773H105.464V68.3636H105.237C104.79 68.3636 104.402 68.4545 104.072 68.6364C103.742 68.8144 103.47 69.0587 103.254 69.3693C103.042 69.6761 102.883 70.0284 102.777 70.4261C102.674 70.8239 102.623 71.2424 102.623 71.6818C102.623 72.2652 102.716 72.8068 102.902 73.3068C103.087 73.8068 103.373 74.2102 103.76 74.517C104.146 74.8239 104.638 74.9773 105.237 74.9773ZM106.578 76.1818H106.169V67.1591H106.578C107.169 67.1591 107.706 67.267 108.191 67.483C108.676 67.6951 109.093 68 109.441 68.3977C109.79 68.7955 110.059 69.2727 110.248 69.8295C110.438 70.3826 110.532 71 110.532 71.6818C110.532 72.3561 110.438 72.9697 110.248 73.5227C110.059 74.0758 109.79 74.5511 109.441 74.9489C109.093 75.3428 108.676 75.6477 108.191 75.8636C107.706 76.0758 107.169 76.1818 106.578 76.1818ZM106.578 74.9773C107.028 74.9773 107.417 74.8902 107.742 74.7159C108.072 74.5379 108.343 74.2955 108.555 73.9886C108.771 73.678 108.93 73.3258 109.032 72.9318C109.138 72.5341 109.191 72.1174 109.191 71.6818C109.191 71.0985 109.099 70.5549 108.913 70.0511C108.727 69.5473 108.441 69.1402 108.055 68.8295C107.669 68.5189 107.176 68.3636 106.578 68.3636H106.35V74.9773H106.578ZM115.727 76.1818C114.94 76.1818 114.248 75.9943 113.654 75.6193C113.063 75.2443 112.601 74.7197 112.267 74.0455C111.938 73.3712 111.773 72.5833 111.773 71.6818C111.773 70.7727 111.938 69.9792 112.267 69.3011C112.601 68.6231 113.063 68.0966 113.654 67.7216C114.248 67.3466 114.94 67.1591 115.727 67.1591C116.515 67.1591 117.205 67.3466 117.796 67.7216C118.39 68.0966 118.852 68.6231 119.182 69.3011C119.515 69.9792 119.682 70.7727 119.682 71.6818C119.682 72.5833 119.515 73.3712 119.182 74.0455C118.852 74.7197 118.39 75.2443 117.796 75.6193C117.205 75.9943 116.515 76.1818 115.727 76.1818ZM115.727 74.9773C116.326 74.9773 116.818 74.8239 117.205 74.517C117.591 74.2102 117.877 73.8068 118.063 73.3068C118.248 72.8068 118.341 72.2652 118.341 71.6818C118.341 71.0985 118.248 70.5549 118.063 70.0511C117.877 69.5473 117.591 69.1402 117.205 68.8295C116.818 68.5189 116.326 68.3636 115.727 68.3636C115.129 68.3636 114.637 68.5189 114.25 68.8295C113.864 69.1402 113.578 69.5473 113.392 70.0511C113.207 70.5549 113.114 71.0985 113.114 71.6818C113.114 72.2652 113.207 72.8068 113.392 73.3068C113.578 73.8068 113.864 74.2102 114.25 74.517C114.637 74.8239 115.129 74.9773 115.727 74.9773ZM120.188 68.5227V67.2727H127.279V68.5227H124.415V76H123.075V68.5227H120.188ZM131.927 76.1818C131.14 76.1818 130.448 75.9943 129.854 75.6193C129.263 75.2443 128.801 74.7197 128.467 74.0455C128.138 73.3712 127.973 72.5833 127.973 71.6818C127.973 70.7727 128.138 69.9792 128.467 69.3011C128.801 68.6231 129.263 68.0966 129.854 67.7216C130.448 67.3466 131.14 67.1591 131.927 67.1591C132.715 67.1591 133.405 67.3466 133.996 67.7216C134.59 68.0966 135.052 68.6231 135.382 69.3011C135.715 69.9792 135.882 70.7727 135.882 71.6818C135.882 72.5833 135.715 73.3712 135.382 74.0455C135.052 74.7197 134.59 75.2443 133.996 75.6193C133.405 75.9943 132.715 76.1818 131.927 76.1818ZM131.927 74.9773C132.526 74.9773 133.018 74.8239 133.405 74.517C133.791 74.2102 134.077 73.8068 134.263 73.3068C134.448 72.8068 134.541 72.2652 134.541 71.6818C134.541 71.0985 134.448 70.5549 134.263 70.0511C134.077 69.5473 133.791 69.1402 133.405 68.8295C133.018 68.5189 132.526 68.3636 131.927 68.3636C131.329 68.3636 130.837 68.5189 130.45 68.8295C130.064 69.1402 129.778 69.5473 129.592 70.0511C129.407 70.5549 129.314 71.0985 129.314 71.6818C129.314 72.2652 129.407 72.8068 129.592 73.3068C129.778 73.8068 130.064 74.2102 130.45 74.517C130.837 74.8239 131.329 74.9773 131.927 74.9773ZM42.9545 92.0909C42.9545 90.6591 43.1402 89.3428 43.5114 88.142C43.8864 86.9375 44.4205 85.8295 45.1136 84.8182H46.2955C46.0227 85.1932 45.767 85.6553 45.5284 86.2045C45.2936 86.75 45.0871 87.3504 44.9091 88.0057C44.7311 88.6572 44.5909 89.3314 44.4886 90.0284C44.3902 90.7254 44.3409 91.4129 44.3409 92.0909C44.3409 92.9924 44.428 93.9072 44.6023 94.8352C44.7765 95.7633 45.0114 96.625 45.3068 97.4205C45.6023 98.2159 45.9318 98.8636 46.2955 99.3636H45.1136C44.4205 98.3523 43.8864 97.2462 43.5114 96.0455C43.1402 94.8409 42.9545 93.5227 42.9545 92.0909ZM48.3273 88.2727H49.6682V97.6364C49.6682 98.1742 49.5754 98.6402 49.3898 99.0341C49.208 99.428 48.9314 99.733 48.5602 99.9489C48.1928 100.165 47.7288 100.273 47.1682 100.273C47.1227 100.273 47.0773 100.273 47.0318 100.273C46.9864 100.273 46.9409 100.273 46.8955 100.273V99.0227C46.9409 99.0227 46.9826 99.0227 47.0205 99.0227C47.0583 99.0227 47.1 99.0227 47.1455 99.0227C47.5545 99.0227 47.8538 98.9015 48.0432 98.6591C48.2326 98.4205 48.3273 98.0795 48.3273 97.6364V88.2727ZM48.9864 86.8182C48.725 86.8182 48.4996 86.7292 48.3102 86.5511C48.1246 86.3731 48.0318 86.1591 48.0318 85.9091C48.0318 85.6591 48.1246 85.4451 48.3102 85.267C48.4996 85.089 48.725 85 48.9864 85C49.2477 85 49.4712 85.089 49.6568 85.267C49.8462 85.4451 49.9409 85.6591 49.9409 85.9091C49.9409 86.1591 49.8462 86.3731 49.6568 86.5511C49.4712 86.7292 49.2477 86.8182 48.9864 86.8182ZM51.7241 100.273V88.2727H53.0196V89.6591H53.1787C53.2772 89.5076 53.4135 89.3144 53.5878 89.0795C53.7658 88.8409 54.0196 88.6288 54.3491 88.4432C54.6825 88.2538 55.1332 88.1591 55.7014 88.1591C56.4363 88.1591 57.084 88.3428 57.6446 88.7102C58.2052 89.0777 58.6427 89.5985 58.9571 90.2727C59.2715 90.947 59.4287 91.7424 59.4287 92.6591C59.4287 93.5833 59.2715 94.3845 58.9571 95.0625C58.6427 95.7367 58.2071 96.2595 57.6503 96.6307C57.0935 96.9981 56.4514 97.1818 55.7241 97.1818C55.1635 97.1818 54.7147 97.089 54.3776 96.9034C54.0404 96.714 53.781 96.5 53.5991 96.2614C53.4173 96.0189 53.2772 95.8182 53.1787 95.6591H53.0651V100.273H51.7241ZM53.0423 92.6364C53.0423 93.2955 53.1389 93.8769 53.3321 94.3807C53.5253 94.8807 53.8075 95.2727 54.1787 95.5568C54.5499 95.8371 55.0045 95.9773 55.5423 95.9773C56.1029 95.9773 56.5707 95.8295 56.9457 95.5341C57.3245 95.2348 57.6086 94.8333 57.798 94.3295C57.9912 93.822 58.0878 93.2576 58.0878 92.6364C58.0878 92.0227 57.9931 91.4697 57.8037 90.9773C57.6181 90.4811 57.3359 90.089 56.9571 89.8011C56.5821 89.5095 56.1105 89.3636 55.5423 89.3636C54.9969 89.3636 54.5385 89.5019 54.1673 89.7784C53.7961 90.0511 53.5158 90.4337 53.3264 90.9261C53.137 91.4148 53.0423 91.9848 53.0423 92.6364ZM64.7332 97.1818C63.8923 97.1818 63.1669 96.9962 62.5571 96.625C61.951 96.25 61.4832 95.7273 61.1537 95.0568C60.8279 94.3826 60.6651 93.5985 60.6651 92.7045C60.6651 91.8106 60.8279 91.0227 61.1537 90.3409C61.4832 89.6553 61.9416 89.1212 62.5287 88.7386C63.1196 88.3523 63.809 88.1591 64.5969 88.1591C65.0514 88.1591 65.5003 88.2348 65.9435 88.3864C66.3866 88.5379 66.7901 88.7841 67.1537 89.125C67.5173 89.4621 67.8071 89.9091 68.023 90.4659C68.2389 91.0227 68.3469 91.7083 68.3469 92.5227V93.0909H61.6196V91.9318H66.9832C66.9832 91.4394 66.8848 91 66.6878 90.6136C66.4946 90.2273 66.2181 89.9223 65.8582 89.6989C65.5022 89.4754 65.0817 89.3636 64.5969 89.3636C64.0628 89.3636 63.6007 89.4962 63.2105 89.7614C62.8241 90.0227 62.5268 90.3636 62.3185 90.7841C62.1101 91.2045 62.006 91.6553 62.006 92.1364V92.9091C62.006 93.5682 62.1196 94.1269 62.3469 94.5852C62.5779 95.0398 62.898 95.3864 63.3071 95.625C63.7162 95.8598 64.1916 95.9773 64.7332 95.9773C65.0855 95.9773 65.4037 95.928 65.6878 95.8295C65.9757 95.7273 66.2238 95.5758 66.4321 95.375C66.6404 95.1705 66.8014 94.9167 66.9151 94.6136L68.2105 94.9773C68.0741 95.4167 67.845 95.803 67.523 96.1364C67.201 96.4659 66.8033 96.7235 66.3298 96.9091C65.8563 97.0909 65.3241 97.1818 64.7332 97.1818ZM73.5094 100.455C72.8616 100.455 72.3048 100.371 71.8389 100.205C71.373 100.042 70.9848 99.8258 70.6741 99.5568C70.3673 99.2917 70.123 99.0076 69.9412 98.7045L71.0094 97.9545C71.1306 98.1136 71.284 98.2955 71.4696 98.5C71.6552 98.7083 71.909 98.8883 72.231 99.0398C72.5567 99.1951 72.9829 99.2727 73.5094 99.2727C74.2139 99.2727 74.7954 99.1023 75.2537 98.7614C75.712 98.4205 75.9412 97.8864 75.9412 97.1591V95.3864H75.8276C75.7291 95.5455 75.5889 95.7424 75.4071 95.9773C75.2291 96.2083 74.9715 96.4148 74.6344 96.5966C74.301 96.7746 73.8503 96.8636 73.2821 96.8636C72.5776 96.8636 71.945 96.697 71.3844 96.3636C70.8276 96.0303 70.3863 95.5455 70.0605 94.9091C69.7385 94.2727 69.5776 93.5 69.5776 92.5909C69.5776 91.697 69.7348 90.9186 70.0491 90.2557C70.3635 89.589 70.801 89.0739 71.3616 88.7102C71.9223 88.3428 72.57 88.1591 73.3048 88.1591C73.873 88.1591 74.3238 88.2538 74.6571 88.4432C74.9942 88.6288 75.2518 88.8409 75.4298 89.0795C75.6116 89.3144 75.7518 89.5076 75.8503 89.6591H75.9866V88.2727H77.2821V97.25C77.2821 98 77.1116 98.6098 76.7707 99.0795C76.4336 99.553 75.9791 99.8996 75.4071 100.119C74.8389 100.343 74.2063 100.455 73.5094 100.455ZM73.4639 95.6591C74.0018 95.6591 74.4563 95.536 74.8276 95.2898C75.1988 95.0436 75.481 94.6894 75.6741 94.2273C75.8673 93.7652 75.9639 93.2121 75.9639 92.5682C75.9639 91.9394 75.8692 91.3845 75.6798 90.9034C75.4904 90.4223 75.2101 90.0455 74.8389 89.7727C74.4677 89.5 74.0094 89.3636 73.4639 89.3636C72.8957 89.3636 72.4223 89.5076 72.0435 89.7955C71.6685 90.0833 71.3863 90.4697 71.1969 90.9545C71.0113 91.4394 70.9185 91.9773 70.9185 92.5682C70.9185 93.1742 71.0132 93.7102 71.2026 94.1761C71.3957 94.6383 71.6798 95.0019 72.0548 95.267C72.4336 95.5284 72.9033 95.6591 73.4639 95.6591ZM81.3366 95.4091L81.2457 96.0227C81.1813 96.4545 81.0829 96.9167 80.9503 97.4091C80.8215 97.9015 80.687 98.3655 80.5469 98.8011C80.4067 99.2367 80.2912 99.5833 80.2003 99.8409H79.1776C79.2268 99.5985 79.2912 99.2784 79.3707 98.8807C79.4503 98.483 79.5298 98.0379 79.6094 97.5455C79.6927 97.0568 79.7609 96.5568 79.8139 96.0455L79.8821 95.4091H81.3366ZM87.521 100.273V88.2727H88.8165V89.6591H88.9756C89.0741 89.5076 89.2104 89.3144 89.3847 89.0795C89.5627 88.8409 89.8165 88.6288 90.146 88.4432C90.4794 88.2538 90.9301 88.1591 91.4983 88.1591C92.2331 88.1591 92.8809 88.3428 93.4415 88.7102C94.0021 89.0777 94.4396 89.5985 94.754 90.2727C95.0684 90.947 95.2256 91.7424 95.2256 92.6591C95.2256 93.5833 95.0684 94.3845 94.754 95.0625C94.4396 95.7367 94.004 96.2595 93.4472 96.6307C92.8903 96.9981 92.2483 97.1818 91.521 97.1818C90.9604 97.1818 90.5116 97.089 90.1744 96.9034C89.8373 96.714 89.5778 96.5 89.396 96.2614C89.2142 96.0189 89.0741 95.8182 88.9756 95.6591H88.8619V100.273H87.521ZM88.8392 92.6364C88.8392 93.2955 88.9358 93.8769 89.129 94.3807C89.3222 94.8807 89.6044 95.2727 89.9756 95.5568C90.3468 95.8371 90.8013 95.9773 91.3392 95.9773C91.8998 95.9773 92.3676 95.8295 92.7426 95.5341C93.1214 95.2348 93.4055 94.8333 93.5949 94.3295C93.7881 93.822 93.8847 93.2576 93.8847 92.6364C93.8847 92.0227 93.79 91.4697 93.6006 90.9773C93.415 90.4811 93.1328 90.089 92.754 89.8011C92.379 89.5095 91.9074 89.3636 91.3392 89.3636C90.7938 89.3636 90.3354 89.5019 89.9642 89.7784C89.593 90.0511 89.3127 90.4337 89.1233 90.9261C88.9339 91.4148 88.8392 91.9848 88.8392 92.6364ZM98.2119 91.75V97H96.871V88.2727H98.1665V89.6364H98.2801C98.4847 89.1932 98.7953 88.8371 99.2119 88.5682C99.6286 88.2955 100.166 88.1591 100.826 88.1591C101.416 88.1591 101.934 88.2803 102.377 88.5227C102.82 88.7614 103.165 89.125 103.411 89.6136C103.657 90.0985 103.78 90.7121 103.78 91.4545V97H102.439V91.5455C102.439 90.8598 102.261 90.3258 101.905 89.9432C101.549 89.5568 101.06 89.3636 100.439 89.3636C100.011 89.3636 99.6286 89.4564 99.2915 89.642C98.9581 89.8277 98.6949 90.0985 98.5017 90.4545C98.3085 90.8106 98.2119 91.2424 98.2119 91.75ZM109.353 100.455C108.705 100.455 108.149 100.371 107.683 100.205C107.217 100.042 106.829 99.8258 106.518 99.5568C106.211 99.2917 105.967 99.0076 105.785 98.7045L106.853 97.9545C106.974 98.1136 107.128 98.2955 107.313 98.5C107.499 98.7083 107.753 98.8883 108.075 99.0398C108.4 99.1951 108.827 99.2727 109.353 99.2727C110.058 99.2727 110.639 99.1023 111.097 98.7614C111.556 98.4205 111.785 97.8864 111.785 97.1591V95.3864H111.671C111.573 95.5455 111.433 95.7424 111.251 95.9773C111.073 96.2083 110.815 96.4148 110.478 96.5966C110.145 96.7746 109.694 96.8636 109.126 96.8636C108.421 96.8636 107.789 96.697 107.228 96.3636C106.671 96.0303 106.23 95.5455 105.904 94.9091C105.582 94.2727 105.421 93.5 105.421 92.5909C105.421 91.697 105.579 90.9186 105.893 90.2557C106.207 89.589 106.645 89.0739 107.205 88.7102C107.766 88.3428 108.414 88.1591 109.149 88.1591C109.717 88.1591 110.168 88.2538 110.501 88.4432C110.838 88.6288 111.096 88.8409 111.274 89.0795C111.455 89.3144 111.596 89.5076 111.694 89.6591H111.83V88.2727H113.126V97.25C113.126 98 112.955 98.6098 112.614 99.0795C112.277 99.553 111.823 99.8996 111.251 100.119C110.683 100.343 110.05 100.455 109.353 100.455ZM109.308 95.6591C109.846 95.6591 110.3 95.536 110.671 95.2898C111.043 95.0436 111.325 94.6894 111.518 94.2273C111.711 93.7652 111.808 93.2121 111.808 92.5682C111.808 91.9394 111.713 91.3845 111.524 90.9034C111.334 90.4223 111.054 90.0455 110.683 89.7727C110.311 89.5 109.853 89.3636 109.308 89.3636C108.739 89.3636 108.266 89.5076 107.887 89.7955C107.512 90.0833 107.23 90.4697 107.041 90.9545C106.855 91.4394 106.762 91.9773 106.762 92.5682C106.762 93.1742 106.857 93.7102 107.046 94.1761C107.239 94.6383 107.524 95.0019 107.899 95.267C108.277 95.5284 108.747 95.6591 109.308 95.6591ZM118.044 92.0909C118.044 93.5227 117.857 94.8409 117.482 96.0455C117.11 97.2462 116.578 98.3523 115.885 99.3636H114.703C114.976 98.9886 115.23 98.5265 115.464 97.9773C115.703 97.4318 115.911 96.8333 116.089 96.1818C116.268 95.5265 116.406 94.8504 116.504 94.1534C116.607 93.4527 116.658 92.7652 116.658 92.0909C116.658 91.1894 116.571 90.2746 116.396 89.3466C116.222 88.4186 115.987 87.5568 115.692 86.7614C115.396 85.9659 115.067 85.3182 114.703 84.8182H115.885C116.578 85.8295 117.11 86.9375 117.482 88.142C117.857 89.3428 118.044 90.6591 118.044 92.0909Z" fill="#828691"/>
<rect x="1" y="1" width="159" height="124" rx="11" stroke="#DDE0EA" stroke-width="2" stroke-dasharray="7 7"/>
</svg>
